<!-- moire-lines.svg -->
<!-- Generated using p5.js v.2.3.0 and p5.plotSvg v.0.3.0: -->
<!-- A Plotter-Oriented SVG Exporter for p5.js -->
<!-- Mon Sep 28 2026 13:40:00 GMT-0400 (Eastern Daylight Time) -->
<!-- DPI: 96 -->
<svg xmlns="http://www.w3.org/2000/svg" version="1.1" width="8.5in" height="11in" viewBox="0 0 816 1056">
  <style>
      circle, ellipse, line, path, polygon, polyline, rect, quad, text {
        fill: none;
        stroke: black;
        stroke-width: 1;
        stroke-linecap: round;
        stroke-linejoin: round;
        vector-effect: non-scaling-stroke;
      }
    </style>
<g>
  <g transform="translate(408, 528)">
    <line x1="-240" y1="-300" x2="-240" y2="300"/>
    <line x1="-232.5000" y1="-300" x2="-232.5000" y2="300"/>
    <line x1="-225" y1="-300" x2="-225" y2="300"/>
    <line x1="-217.5000" y1="-300" x2="-217.5000" y2="300"/>
    <line x1="-210" y1="-300" x2="-210" y2="300"/>
    <line x1="-202.5000" y1="-300" x2="-202.5000" y2="300"/>
    <line x1="-195" y1="-300" x2="-195" y2="300"/>
    <line x1="-187.5000" y1="-300" x2="-187.5000" y2="300"/>
    <line x1="-180" y1="-300" x2="-180" y2="300"/>
    <line x1="-172.5000" y1="-300" x2="-172.5000" y2="300"/>
    <line x1="-165" y1="-300" x2="-165" y2="300"/>
    <line x1="-157.5000" y1="-300" x2="-157.5000" y2="300"/>
    <line x1="-150" y1="-300" x2="-150" y2="300"/>
    <line x1="-142.5000" y1="-300" x2="-142.5000" y2="300"/>
    <line x1="-135" y1="-300" x2="-135" y2="300"/>
    <line x1="-127.5000" y1="-300" x2="-127.5000" y2="300"/>
    <line x1="-120" y1="-300" x2="-120" y2="300"/>
    <line x1="-112.5000" y1="-300" x2="-112.5000" y2="300"/>
    <line x1="-105" y1="-300" x2="-105" y2="300"/>
    <line x1="-97.5000" y1="-300" x2="-97.5000" y2="300"/>
    <line x1="-90" y1="-300" x2="-90" y2="300"/>
    <line x1="-82.5000" y1="-300" x2="-82.5000" y2="300"/>
    <line x1="-75" y1="-300" x2="-75" y2="300"/>
    <line x1="-67.5000" y1="-300" x2="-67.5000" y2="300"/>
    <line x1="-60" y1="-300" x2="-60" y2="300"/>
    <line x1="-52.5000" y1="-300" x2="-52.5000" y2="300"/>
    <line x1="-45" y1="-300" x2="-45" y2="300"/>
    <line x1="-37.5000" y1="-300" x2="-37.5000" y2="300"/>
    <line x1="-30" y1="-300" x2="-30" y2="300"/>
    <line x1="-22.5000" y1="-300" x2="-22.5000" y2="300"/>
    <line x1="-15" y1="-300" x2="-15" y2="300"/>
    <line x1="-7.5000" y1="-300" x2="-7.5000" y2="300"/>
    <line x1="0" y1="-300" x2="0" y2="300"/>
    <line x1="7.5000" y1="-300" x2="7.5000" y2="300"/>
    <line x1="15" y1="-300" x2="15" y2="300"/>
    <line x1="22.5000" y1="-300" x2="22.5000" y2="300"/>
    <line x1="30" y1="-300" x2="30" y2="300"/>
    <line x1="37.5000" y1="-300" x2="37.5000" y2="300"/>
    <line x1="45" y1="-300" x2="45" y2="300"/>
    <line x1="52.5000" y1="-300" x2="52.5000" y2="300"/>
    <line x1="60" y1="-300" x2="60" y2="300"/>
    <line x1="67.5000" y1="-300" x2="67.5000" y2="300"/>
    <line x1="75" y1="-300" x2="75" y2="300"/>
    <line x1="82.5000" y1="-300" x2="82.5000" y2="300"/>
    <line x1="90" y1="-300" x2="90" y2="300"/>
    <line x1="97.5000" y1="-300" x2="97.5000" y2="300"/>
    <line x1="105" y1="-300" x2="105" y2="300"/>
    <line x1="112.5000" y1="-300" x2="112.5000" y2="300"/>
    <line x1="120" y1="-300" x2="120" y2="300"/>
    <line x1="127.5000" y1="-300" x2="127.5000" y2="300"/>
    <line x1="135" y1="-300" x2="135" y2="300"/>
    <line x1="142.5000" y1="-300" x2="142.5000" y2="300"/>
    <line x1="150" y1="-300" x2="150" y2="300"/>
    <line x1="157.5000" y1="-300" x2="157.5000" y2="300"/>
    <line x1="165" y1="-300" x2="165" y2="300"/>
    <line x1="172.5000" y1="-300" x2="172.5000" y2="300"/>
    <line x1="180" y1="-300" x2="180" y2="300"/>
    <line x1="187.5000" y1="-300" x2="187.5000" y2="300"/>
    <line x1="195" y1="-300" x2="195" y2="300"/>
    <line x1="202.5000" y1="-300" x2="202.5000" y2="300"/>
    <line x1="210" y1="-300" x2="210" y2="300"/>
    <line x1="217.5000" y1="-300" x2="217.5000" y2="300"/>
    <line x1="225" y1="-300" x2="225" y2="300"/>
    <line x1="232.5000" y1="-300" x2="232.5000" y2="300"/>
    <line x1="240" y1="-300" x2="240" y2="300"/>
    <g transform="rotate(4)">
      <line x1="-237.5000" y1="-300" x2="-237.5000" y2="300"/>
      <line x1="-230" y1="-300" x2="-230" y2="300"/>
      <line x1="-222.5000" y1="-300" x2="-222.5000" y2="300"/>
      <line x1="-215" y1="-300" x2="-215" y2="300"/>
      <line x1="-207.5000" y1="-300" x2="-207.5000" y2="300"/>
      <line x1="-200" y1="-300" x2="-200" y2="300"/>
      <line x1="-192.5000" y1="-300" x2="-192.5000" y2="300"/>
      <line x1="-185" y1="-300" x2="-185" y2="300"/>
      <line x1="-177.5000" y1="-300" x2="-177.5000" y2="300"/>
      <line x1="-170" y1="-300" x2="-170" y2="300"/>
      <line x1="-162.5000" y1="-300" x2="-162.5000" y2="300"/>
      <line x1="-155" y1="-300" x2="-155" y2="300"/>
      <line x1="-147.5000" y1="-300" x2="-147.5000" y2="300"/>
      <line x1="-140" y1="-300" x2="-140" y2="300"/>
      <line x1="-132.5000" y1="-300" x2="-132.5000" y2="300"/>
      <line x1="-125" y1="-300" x2="-125" y2="300"/>
      <line x1="-117.5000" y1="-300" x2="-117.5000" y2="300"/>
      <line x1="-110" y1="-300" x2="-110" y2="300"/>
      <line x1="-102.5000" y1="-300" x2="-102.5000" y2="300"/>
      <line x1="-95" y1="-300" x2="-95" y2="300"/>
      <line x1="-87.5000" y1="-300" x2="-87.5000" y2="300"/>
      <line x1="-80" y1="-300" x2="-80" y2="300"/>
      <line x1="-72.5000" y1="-300" x2="-72.5000" y2="300"/>
      <line x1="-65" y1="-300" x2="-65" y2="300"/>
      <line x1="-57.5000" y1="-300" x2="-57.5000" y2="300"/>
      <line x1="-50" y1="-300" x2="-50" y2="300"/>
      <line x1="-42.5000" y1="-300" x2="-42.5000" y2="300"/>
      <line x1="-35" y1="-300" x2="-35" y2="300"/>
      <line x1="-27.5000" y1="-300" x2="-27.5000" y2="300"/>
      <line x1="-20" y1="-300" x2="-20" y2="300"/>
      <line x1="-12.5000" y1="-300" x2="-12.5000" y2="300"/>
      <line x1="-5" y1="-300" x2="-5" y2="300"/>
      <line x1="2.5000" y1="-300" x2="2.5000" y2="300"/>
      <line x1="10" y1="-300" x2="10" y2="300"/>
      <line x1="17.5000" y1="-300" x2="17.5000" y2="300"/>
      <line x1="25" y1="-300" x2="25" y2="300"/>
      <line x1="32.5000" y1="-300" x2="32.5000" y2="300"/>
      <line x1="40" y1="-300" x2="40" y2="300"/>
      <line x1="47.5000" y1="-300" x2="47.5000" y2="300"/>
      <line x1="55" y1="-300" x2="55" y2="300"/>
      <line x1="62.5000" y1="-300" x2="62.5000" y2="300"/>
      <line x1="70" y1="-300" x2="70" y2="300"/>
      <line x1="77.5000" y1="-300" x2="77.5000" y2="300"/>
      <line x1="85" y1="-300" x2="85" y2="300"/>
      <line x1="92.5000" y1="-300" x2="92.5000" y2="300"/>
      <line x1="100" y1="-300" x2="100" y2="300"/>
      <line x1="107.5000" y1="-300" x2="107.5000" y2="300"/>
      <line x1="115" y1="-300" x2="115" y2="300"/>
      <line x1="122.5000" y1="-300" x2="122.5000" y2="300"/>
      <line x1="130" y1="-300" x2="130" y2="300"/>
      <line x1="137.5000" y1="-300" x2="137.5000" y2="300"/>
      <line x1="145" y1="-300" x2="145" y2="300"/>
      <line x1="152.5000" y1="-300" x2="152.5000" y2="300"/>
      <line x1="160" y1="-300" x2="160" y2="300"/>
      <line x1="167.5000" y1="-300" x2="167.5000" y2="300"/>
      <line x1="175" y1="-300" x2="175" y2="300"/>
      <line x1="182.5000" y1="-300" x2="182.5000" y2="300"/>
      <line x1="190" y1="-300" x2="190" y2="300"/>
      <line x1="197.5000" y1="-300" x2="197.5000" y2="300"/>
      <line x1="205" y1="-300" x2="205" y2="300"/>
      <line x1="212.5000" y1="-300" x2="212.5000" y2="300"/>
      <line x1="220" y1="-300" x2="220" y2="300"/>
      <line x1="227.5000" y1="-300" x2="227.5000" y2="300"/>
      <line x1="235" y1="-300" x2="235" y2="300"/>
    </g>
  </g>
</g>
</svg>